<svg width="512" height="512" viewBox="0 0 512 512" xmlns="http://www.w3.org/2000/svg">
  <defs>
    <linearGradient id="bg" x1="96" y1="64" x2="424" y2="448" gradientUnits="userSpaceOnUse">
      <stop offset="0" stop-color="#ffccd8"/>
      <stop offset="1" stop-color="#ff7d95"/>
    </linearGradient>
    <linearGradient id="berry" x1="174" y1="132" x2="350" y2="420" gradientUnits="userSpaceOnUse">
      <stop offset="0" stop-color="#ff90a7"/>
      <stop offset="0.46" stop-color="#ff547d"/>
      <stop offset="1" stop-color="#cf224f"/>
    </linearGradient>
    <linearGradient id="leaf" x1="196" y1="78" x2="316" y2="184" gradientUnits="userSpaceOnUse">
      <stop offset="0" stop-color="#a7ff8c"/>
      <stop offset="1" stop-color="#3f9b52"/>
    </linearGradient>
    <filter id="shadow" x="-20%" y="-20%" width="140%" height="140%">
      <feDropShadow dx="0" dy="16" stdDeviation="18" flood-color="#8a1738" flood-opacity="0.28"/>
    </filter>
  </defs>
  <rect x="24" y="24" width="464" height="464" rx="124" fill="#1a020a"/>
  <rect x="36" y="36" width="440" height="440" rx="112" fill="url(#bg)"/>
  <g filter="url(#shadow)">
    <path d="M251 109c-37 0-68 17-90 48-20 28-31 64-31 101 0 117 78 174 126 174 51 0 126-60 126-174 0-37-11-73-31-101-22-31-53-48-100-48z" fill="url(#berry)" stroke="#ffe6ec" stroke-width="10" stroke-linejoin="round"/>
    <path d="M255 119c-11-22-33-39-59-46 6 31 23 57 53 73M256 119c11-22 33-39 59-46-6 31-23 57-53 73" fill="none" stroke="#ffe6ec" stroke-width="10" stroke-linecap="round"/>
    <path d="M191 96c17-31 46-45 71-46-1 25-17 58-44 77-13-2-21-11-27-31z" fill="url(#leaf)" stroke="#edf9da" stroke-width="8" stroke-linejoin="round"/>
    <path d="M321 96c-17-31-46-45-71-46 1 25 17 58 44 77 13-2 21-11 27-31z" fill="url(#leaf)" stroke="#edf9da" stroke-width="8" stroke-linejoin="round"/>
    <path d="M180 182c24-15 53-23 76-23 24 0 57 8 81 24" fill="none" stroke="#ffbfd0" stroke-width="8" stroke-linecap="round"/>
    <g fill="#ffe6ec">
      <ellipse cx="205" cy="222" rx="8" ry="12"/>
      <ellipse cx="254" cy="213" rx="8" ry="12"/>
      <ellipse cx="302" cy="224" rx="8" ry="12"/>
      <ellipse cx="189" cy="277" rx="8" ry="12"/>
      <ellipse cx="236" cy="262" rx="8" ry="12"/>
      <ellipse cx="281" cy="273" rx="8" ry="12"/>
      <ellipse cx="322" cy="288" rx="8" ry="12"/>
      <ellipse cx="213" cy="331" rx="8" ry="12"/>
      <ellipse cx="260" cy="321" rx="8" ry="12"/>
      <ellipse cx="306" cy="339" rx="8" ry="12"/>
    </g>
    <g fill="#2a0712">
      <ellipse cx="225" cy="254" rx="10" ry="13"/>
      <ellipse cx="287" cy="254" rx="10" ry="13"/>
    </g>
    <path d="M218 300c14 18 29 26 38 26 10 0 25-8 38-26" fill="none" stroke="#2a0712" stroke-width="10" stroke-linecap="round"/>
    <path d="M216 288c16 11 36 16 40 16 4 0 24-5 40-16" fill="none" stroke="#ffdde6" stroke-width="6" stroke-linecap="round"/>
  </g>
</svg>
